<svg width="14" height="14" viewBox="0 0 14 14" fill="none" xmlns="http://www.w3.org/2000/svg">
<path fill-rule="evenodd" clip-rule="evenodd" d="M4.28125 0.554688C5.14584 0.184894 6.05208 0 7 0C7.94792 0 8.85416 0.184894 9.71875 0.554688C10.5833 0.924481 11.3281 1.42187 11.9531 2.04688C12.5781 2.67188 13.0755 3.41666 13.4453 4.28125C13.8151 5.14584 14 6.05208 14 7C14 7.94792 13.8151 8.85416 13.4453 9.71875C13.0755 10.5833 12.5781 11.3281 11.9531 11.9531C11.3281 12.5781 10.5833 13.0755 9.71875 13.4453C8.85416 13.8151 7.94792 14 7 14C6.05208 14 5.14584 13.8151 4.28125 13.4453C3.41666 13.0755 2.67188 12.5781 2.04688 11.9531C1.42187 11.3281 0.924481 10.5833 0.554688 9.71875C0.184894 8.85416 0 7.94792 0 7C0 6.05208 0.184894 5.14584 0.554688 4.28125C0.924481 3.41666 1.42187 2.67188 2.04688 2.04688C2.67188 1.42187 3.41666 0.924481 4.28125 0.554688ZM9.82031 1.70312C8.92968 1.23437 7.98959 1 7 1C6.01041 1 5.07032 1.23437 4.17969 1.70312L5.69531 3.21875C6.1224 3.07292 6.55729 3 7 3C7.44271 3 7.8776 3.07292 8.30469 3.21875L9.82031 1.70312ZM1.70312 9.82031L3.21875 8.30469C3.07292 7.8776 3 7.44271 3 7C3 6.55729 3.07292 6.1224 3.21875 5.69531L1.70312 4.17969C1.23437 5.07032 1 6.01041 1 7C1 7.98959 1.23437 8.92968 1.70312 9.82031ZM4.17969 12.2969C5.07032 12.7656 6.01041 13 7 13C7.98959 13 8.92968 12.7656 9.82031 12.2969L8.30469 10.7812C7.8776 10.9271 7.44271 11 7 11C6.55729 11 6.1224 10.9271 5.69531 10.7812L4.17969 12.2969ZM4.875 9.125C5.46354 9.70834 6.17187 10 7 10C7.82813 10 8.53515 9.70703 9.12109 9.12109C9.70703 8.53515 10 7.82813 10 7C10 6.17187 9.70703 5.46485 9.12109 4.87891C8.53515 4.29297 7.82813 4 7 4C6.17187 4 5.46485 4.29297 4.87891 4.87891C4.29297 5.46485 4 6.17187 4 7C4 7.82813 4.29166 8.53646 4.875 9.125ZM10.7812 8.30469L12.2969 9.82031C12.7656 8.92968 13 7.98959 13 7C13 6.01041 12.7656 5.07032 12.2969 4.17969L10.7812 5.69531C10.9271 6.1224 11 6.55729 11 7C11 7.44271 10.9271 7.8776 10.7812 8.30469Z" fill="black" fill-opacity="0.4"/>
</svg>
