<svg width="17" height="13" viewBox="0 0 17 13" fill="none" xmlns="http://www.w3.org/2000/svg">
<path fill-rule="evenodd" clip-rule="evenodd" d="M8.87354 0.5C10.2954 0.5 11.6125 0.755208 12.8247 1.26562C14.0369 1.77604 14.994 2.46419 15.6958 3.33007C16.3976 4.19595 16.7485 5.14843 16.7485 6.18749C16.7485 7.22655 16.3931 8.17902 15.6821 9.0449C14.9712 9.91079 14.0142 10.5989 12.811 11.1093C11.6079 11.6198 10.2954 11.875 8.87354 11.875C8.01676 11.875 7.18734 11.7747 6.38525 11.5742C5.10921 12.2304 3.67822 12.6224 2.09229 12.75C1.85531 12.7682 1.63656 12.7181 1.43604 12.5996C1.23551 12.4811 1.10791 12.3125 1.05322 12.0937C0.962077 11.8385 0.998535 11.6107 1.1626 11.4101C1.25374 11.2825 1.41781 11.1367 1.65479 10.9726L1.70947 10.9179C1.98291 10.7357 2.17432 10.5898 2.28369 10.4804C2.46598 10.2799 2.61182 10.0338 2.72119 9.74217C2.17432 9.24998 1.75049 8.69855 1.44971 8.08787C1.14893 7.4772 0.998535 6.84374 0.998535 6.18749C0.998535 5.14843 1.354 4.19595 2.06494 3.33007C2.77588 2.46419 3.73291 1.77604 4.93604 1.26562C6.13916 0.755208 7.45166 0.5 8.87354 0.5ZM8.87352 10.5625C10.2042 10.5625 11.3983 10.3255 12.4555 9.85154C13.3852 9.43227 14.1235 8.87628 14.6704 8.18358C15.1808 7.52733 15.436 6.86196 15.436 6.18749C15.436 5.51301 15.1808 4.84765 14.6704 4.1914C14.1235 3.49869 13.3852 2.9427 12.4555 2.52343C11.3983 2.04948 10.2042 1.8125 8.87352 1.8125C7.54279 1.8125 6.34878 2.04948 5.29149 2.52343C4.36181 2.9427 3.62353 3.49869 3.07666 4.1914C2.56624 4.84765 2.31103 5.51301 2.31103 6.18749C2.31103 6.78905 2.49332 7.37238 2.85791 7.93748C3.18603 8.41144 3.63264 8.84894 4.19775 9.24998C4.14306 9.61456 3.96077 10.0247 3.65087 10.4804C3.34098 10.9362 2.96728 11.3281 2.52978 11.6562C3.20426 11.5651 3.89697 11.3554 4.6079 11.0273C5.02717 10.845 5.56493 10.5625 6.22118 10.1797C7.05972 10.4349 7.94383 10.5625 8.87352 10.5625Z" fill="black" fill-opacity="0.2"/>
</svg>
